<?xml version="1.0" standalone="no"?>
<!DOCTYPE svg PUBLIC "-//W3C//DTD SVG 20010904//EN"
 "http://www.w3.org/TR/2001/REC-SVG-20010904/DTD/svg10.dtd">
<svg version="1.0" xmlns="http://www.w3.org/2000/svg"
 width="512.000000pt" height="512.000000pt" viewBox="0 0 512.000000 512.000000"
 preserveAspectRatio="xMidYMid meet">
<metadata>
Created by potrace 1.11, written by Peter Selinger 2001-2013
</metadata>
<g transform="translate(0.000000,512.000000) scale(0.100000,-0.100000)"
fill="#000000" stroke="none">
<path d="M1206 5080 c-14 -35 -16 -106 -16 -559 0 -368 3 -528 12 -552 19 -55
57 -97 114 -125 107 -53 230 -12 286 95 l28 53 0 524 c0 458 -2 529 -16 564
l-16 40 -188 0 -188 0 -16 -40z"/>
<path d="M3206 5080 c-14 -35 -16 -106 -16 -559 0 -368 3 -528 12 -552 19 -55
57 -97 114 -125 107 -53 230 -12 286 95 l28 53 0 524 c0 458 -2 529 -16 564
l-16 40 -188 0 -188 0 -16 -40z"/>
<path d="M335 4786 c-150 -36 -270 -156 -311 -310 -20 -75 -21 -3976 0 -4051
19 -73 52 -131 104 -187 55 -59 111 -94 193 -119 58 -18 118 -19 1471 -19
l1411 0 -105 53 c-116 59 -221 129 -318 211 l-65 56 -1099 0 c-840 0 -1108 3
-1140 12 -53 16 -118 81 -134 134 -9 32 -12 318 -12 1228 l0 1186 2080 0 2080
0 0 -108 0 -109 79 -52 c43 -28 115 -83 160 -122 l81 -70 0 945 c0 653 -3 961
-11 998 -33 157 -170 293 -327 327 -33 7 -182 11 -402 11 l-349 0 -3 -422 -3
-423 -27 -50 c-32 -60 -87 -115 -148 -146 -37 -19 -61 -23 -130 -23 -69 0 -93
4 -130 23 -61 31 -116 86 -148 146 l-27 50 -3 423 -3 422 -689 0 -689 0 -3
-422 -3 -423 -27 -50 c-32 -60 -87 -115 -148 -146 -37 -19 -61 -23 -130 -23
-72 0 -92 4 -135 26 -60 31 -114 86 -146 148 -24 45 -24 46 -27 468 l-3 422
-357 -1 c-244 0 -373 -5 -407 -13z"/>
<path d="M3575 2850 c-527 -68 -981 -446 -1139 -949 -49 -155 -60 -235 -60
-421 0 -142 4 -194 22 -277 120 -555 540 -968 1099 -1080 131 -26 396 -24 525
5 272 60 489 174 694 367 183 171 339 462 388 725 24 126 22 414 -4 541 -97
473 -457 880 -910 1028 -178 58 -438 84 -615 61z m351 -205 c254 -38 469 -147
655 -334 398 -398 462 -1003 155 -1476 -76 -118 -242 -281 -358 -353 -388
-240 -868 -240 -1256 0 -115 71 -282 235 -357 351 -202 312 -248 686 -129
1036 103 300 351 566 646 693 206 89 418 116 644 83z"/>
<path d="M3650 1900 l0 -540 430 0 430 0 0 110 0 110 -320 0 -320 0 0 430 0
430 -110 0 -110 0 0 -540z"/>
<path d="M840 2480 l0 -290 290 0 290 0 0 290 0 290 -290 0 -290 0 0 -290z
m470 0 l0 -180 -180 0 -180 0 0 180 0 180 180 0 180 0 0 -180z"/>
<path d="M1660 2480 l0 -290 290 0 290 0 0 290 0 290 -290 0 -290 0 0 -290z
m470 0 l0 -180 -180 0 -180 0 0 180 0 180 180 0 180 0 0 -180z"/>
<path d="M2481 2508 c0 -208 3 -259 12 -244 7 10 31 45 55 77 l42 59 0 130 0
130 134 0 c116 0 136 3 157 19 14 10 51 35 84 55 l60 36 -272 0 -273 0 1 -262z"/>
<path d="M840 1730 l0 -290 290 0 290 0 0 290 0 290 -290 0 -290 0 0 -290z
m470 0 l0 -180 -180 0 -180 0 0 180 0 180 180 0 180 0 0 -180z"/>
<path d="M1660 1730 l0 -290 290 0 290 0 0 290 0 290 -290 0 -290 0 0 -290z
m470 0 l0 -180 -180 0 -180 0 0 180 0 180 180 0 180 0 0 -180z"/>
<path d="M840 980 l0 -290 290 0 290 0 0 290 0 290 -290 0 -290 0 0 -290z
m470 0 l0 -180 -180 0 -180 0 0 180 0 180 180 0 180 0 0 -180z"/>
<path d="M1660 980 l0 -290 290 0 290 0 0 290 0 290 -290 0 -290 0 0 -290z
m470 0 l0 -180 -180 0 -180 0 0 180 0 180 180 0 180 0 0 -180z"/>
</g>
</svg>
