<?xml version="1.0" standalone="no"?>
<!DOCTYPE svg PUBLIC "-//W3C//DTD SVG 20010904//EN"
 "http://www.w3.org/TR/2001/REC-SVG-20010904/DTD/svg10.dtd">
<svg version="1.0" xmlns="http://www.w3.org/2000/svg"
 width="195.000000pt" height="195.000000pt" viewBox="0 0 195.000000 195.000000"
 preserveAspectRatio="xMidYMid meet">
<metadata>
Created by potrace 1.11, written by Peter Selinger 2001-2013
</metadata>
<g transform="translate(0.000000,195.000000) scale(0.100000,-0.100000)"
fill="#000000" stroke="none">
<path d="M1043 1806 c-69 -32 -73 -41 -73 -193 l0 -136 -37 -66 c-48 -87 -198
-316 -212 -325 -6 -4 -160 -8 -342 -9 l-332 -2 -20 -27 -21 -28 28 -357 c15
-197 30 -380 33 -407 11 -88 1 -86 333 -86 l291 0 24 25 c14 13 25 33 25 45 0
25 -3 25 56 -2 48 -22 59 -23 439 -26 435 -3 447 -2 504 64 37 41 45 70 38
131 -4 41 -1 51 27 86 28 35 31 46 31 106 0 54 4 72 23 95 29 37 36 66 29 123
-4 41 -1 51 27 86 28 36 31 45 30 107 -1 84 -26 136 -80 167 -37 22 -49 23
-280 23 -132 0 -243 2 -246 5 -3 3 1 38 8 78 18 102 17 172 -6 260 -27 108
-80 226 -111 250 -35 25 -141 33 -186 13z m100 -178 c15 -62 27 -123 27 -134
0 -12 -32 -75 -70 -140 -85 -143 -101 -187 -76 -212 15 -15 48 -17 281 -20
293 -4 288 -2 287 -71 -1 -43 -13 -74 -44 -108 -18 -19 -18 -25 -8 -56 17 -46
6 -100 -31 -141 -28 -32 -28 -35 -14 -62 8 -16 15 -33 15 -39 0 -31 -24 -86
-47 -109 -23 -23 -25 -29 -15 -52 17 -35 15 -80 -4 -120 -30 -64 -31 -64 -324
-64 -249 0 -267 1 -300 20 -19 12 -47 26 -62 33 l-28 11 0 311 0 310 36 29
c42 33 197 264 254 378 l39 78 -6 123 c-6 122 -6 123 18 134 13 6 29 12 34 12
6 1 23 -50 38 -111z"/>
</g>
</svg>
